<svg xmlns="http://www.w3.org/2000/svg" viewBox="0 0 1200 900" role="img" aria-labelledby="title desc">
  <title id="title">Abstract city travel image</title>
  <desc id="desc">Warm abstract city skyline with sun and layered buildings.</desc>
  <defs>
    <linearGradient id="sky" x1="0" y1="0" x2="1" y2="1">
      <stop offset="0" stop-color="#f7d8b8"/>
      <stop offset="0.55" stop-color="#d98761"/>
      <stop offset="1" stop-color="#375f7f"/>
    </linearGradient>
    <linearGradient id="ground" x1="0" y1="0" x2="0" y2="1">
      <stop offset="0" stop-color="#3d6951"/>
      <stop offset="1" stop-color="#1e3529"/>
    </linearGradient>
  </defs>
  <rect width="1200" height="900" fill="url(#sky)"/>
  <circle cx="920" cy="170" r="95" fill="#fff1c7" opacity="0.86"/>
  <path d="M0 655 C180 585 270 670 430 600 C590 530 750 640 930 560 C1030 515 1120 520 1200 545 L1200 900 L0 900 Z" fill="#75432e" opacity="0.56"/>
  <path d="M0 720 C160 670 290 720 450 675 C630 625 790 715 970 640 C1060 600 1140 610 1200 620 L1200 900 L0 900 Z" fill="url(#ground)"/>
  <g fill="#2d2a2a" opacity="0.84">
    <rect x="118" y="380" width="104" height="310" rx="10"/>
    <rect x="250" y="295" width="140" height="395" rx="12"/>
    <rect x="420" y="430" width="110" height="260" rx="10"/>
    <rect x="566" y="250" width="160" height="440" rx="12"/>
    <rect x="758" y="360" width="120" height="330" rx="10"/>
    <rect x="914" y="310" width="138" height="380" rx="12"/>
  </g>
  <g fill="#fff4eb" opacity="0.46">
    <rect x="145" y="420" width="18" height="42" rx="5"/><rect x="178" y="420" width="18" height="42" rx="5"/>
    <rect x="286" y="345" width="22" height="46" rx="5"/><rect x="326" y="345" width="22" height="46" rx="5"/>
    <rect x="610" y="315" width="22" height="50" rx="5"/><rect x="652" y="315" width="22" height="50" rx="5"/>
    <rect x="950" y="370" width="22" height="46" rx="5"/><rect x="992" y="370" width="22" height="46" rx="5"/>
  </g>
</svg>
